<?xml version="1.0" encoding="UTF-8" standalone="no"?>
<!DOCTYPE svg PUBLIC "-//W3C//DTD SVG 1.1//EN"
 "http://www.w3.org/Graphics/SVG/1.1/DTD/svg11.dtd">
<!-- Generated by graphviz version 2.40.1 (20161225.0304)
 -->
<!-- Title: gocallvis Pages: 1 -->
<svg width="630pt" height="757pt"
 viewBox="0.00 0.00 629.50 756.80" xmlns="http://www.w3.org/2000/svg" xmlns:xlink="http://www.w3.org/1999/xlink">
<g id="graph0" class="graph" transform="scale(1 1) rotate(0) translate(0 756.8)">
<title>gocallvis</title>
<polygon fill="#d3d3d3" stroke="transparent" points="0,0 0,-756.8 629.5009,-756.8 629.5009,0 0,0"/>
<text text-anchor="middle" x="46.507" y="-8.2" font-family="Arial" font-size="14.00" fill="#000000">geerpc/main</text>
<g id="clust1" class="cluster">
<title>cluster_focus</title>
<polygon fill="#e6ecfa" stroke="#000000" stroke-width=".5" points="8,-32.8 8,-748.8 621.5009,-748.8 621.5009,-32.8 8,-32.8"/>
<text text-anchor="middle" x="314.7505" y="-728.6" font-family="Arial" font-size="18.00" fill="#000000">codec</text>
</g>
<g id="clust3" class="cluster">
<title>cluster_geerpc</title>
<g id="a_clust3"><a xlink:href="/?f=geerpc" xlink:title="package: geerpc">
<polygon fill="#ffffe0" stroke="#000000" stroke-width=".8" points="16,-84.8 16,-710.8 180.9685,-710.8 180.9685,-84.8 16,-84.8"/>
<text text-anchor="middle" x="98.4843" y="-692.4" font-family="Tahoma bold" font-size="16.00" fill="#000000">geerpc</text>
</a>
</g>
</g>
<g id="clust5" class="cluster">
<title>cluster_*geerpc.Server</title>
<g id="a_clust5"><a xlink:href="/?f=geerpc" xlink:title="type: *geerpc.Server">
<path fill="#eed8ae" stroke="#000000" stroke-width=".5" d="M36,-300.8C36,-300.8 160.9685,-300.8 160.9685,-300.8 166.9685,-300.8 172.9685,-306.8 172.9685,-312.8 172.9685,-312.8 172.9685,-610.8 172.9685,-610.8 172.9685,-616.8 166.9685,-622.8 160.9685,-622.8 160.9685,-622.8 36,-622.8 36,-622.8 30,-622.8 24,-616.8 24,-610.8 24,-610.8 24,-312.8 24,-312.8 24,-306.8 30,-300.8 36,-300.8"/>
<text text-anchor="middle" x="98.4843" y="-309.3" font-family="Tahoma bold" font-size="15.00" fill="#222222">(*Server)</text>
</a>
</g>
</g>
<g id="clust4" class="cluster">
<title>cluster_*geerpc.Client</title>
<g id="a_clust4"><a xlink:href="/?f=geerpc" xlink:title="type: *geerpc.Client">
<path fill="#eed8ae" stroke="#000000" stroke-width=".5" d="M75.1167,-92.8C75.1167,-92.8 121.8519,-92.8 121.8519,-92.8 127.8519,-92.8 133.8519,-98.8 133.8519,-104.8 133.8519,-104.8 133.8519,-280.8 133.8519,-280.8 133.8519,-286.8 127.8519,-292.8 121.8519,-292.8 121.8519,-292.8 75.1167,-292.8 75.1167,-292.8 69.1167,-292.8 63.1167,-286.8 63.1167,-280.8 63.1167,-280.8 63.1167,-104.8 63.1167,-104.8 63.1167,-98.8 69.1167,-92.8 75.1167,-92.8"/>
<text text-anchor="middle" x="98.4843" y="-101.3" font-family="Tahoma bold" font-size="15.00" fill="#222222">(*Client)</text>
</a>
</g>
</g>
<g id="clust2" class="cluster">
<title>cluster_*geerpc/codec.GobCodec</title>
<g id="a_clust2"><a xlink:title="type: *geerpc/codec.GobCodec">
<path fill="#b0c4de" stroke="#000000" stroke-width=".5" d="M251.649,-198.8C251.649,-198.8 601.5009,-198.8 601.5009,-198.8 607.5009,-198.8 613.5009,-204.8 613.5009,-210.8 613.5009,-210.8 613.5009,-386.8 613.5009,-386.8 613.5009,-392.8 607.5009,-398.8 601.5009,-398.8 601.5009,-398.8 251.649,-398.8 251.649,-398.8 245.649,-398.8 239.649,-392.8 239.649,-386.8 239.649,-386.8 239.649,-210.8 239.649,-210.8 239.649,-204.8 245.649,-198.8 251.649,-198.8"/>
<text text-anchor="middle" x="426.5749" y="-207.3" font-family="Arial" font-size="15.00" fill="#222222">(*GobCodec)</text>
</a>
</g>
</g>
<!-- geerpc/codec.NewGobCodec -->
<g id="node1" class="node">
<title>geerpc/codec.NewGobCodec</title>
<ellipse fill="#add8e6" stroke="#000000" stroke-width="1.5" cx="291.2796" cy="-626.8" rx="53.1228" ry="18"/>
<text text-anchor="middle" x="291.2796" y="-622.6" font-family="Verdana" font-size="14.00" fill="#000000">NewGobCodec</text>
</g>
<!-- geerpc/codec.init -->
<g id="node2" class="node">
<title>geerpc/codec.init</title>
<ellipse fill="#add8e6" stroke="#000000" stroke-width=".5" cx="98.4843" cy="-58.8" rx="27" ry="18"/>
<text text-anchor="middle" x="98.4843" y="-54.6" font-family="Verdana" font-size="14.00" fill="#000000">init</text>
</g>
<!-- geerpc/codec.init#1 -->
<g id="node3" class="node">
<title>geerpc/codec.init#1</title>
<ellipse fill="#add8e6" stroke="#000000" stroke-width=".5" cx="291.2796" cy="-58.8" rx="27" ry="18"/>
<text text-anchor="middle" x="291.2796" y="-54.6" font-family="Verdana" font-size="14.00" fill="#000000">init#1</text>
</g>
<!-- geerpc/codec.init&#45;&gt;geerpc/codec.init#1 -->
<g id="edge13" class="edge">
<title>geerpc/codec.init&#45;&gt;geerpc/codec.init#1</title>
<path fill="none" stroke="#000000" d="M125.6982,-58.8C159.2847,-58.8 216.5534,-58.8 254.1558,-58.8"/>
<polygon fill="#000000" stroke="#000000" points="254.2041,-62.3001 264.2041,-58.8 254.2041,-55.3001 254.2041,-62.3001"/>
</g>
<!-- (*geerpc/codec.GobCodec).ReadHeader -->
<g id="node4" class="node">
<title>(*geerpc/codec.GobCodec).ReadHeader</title>
<ellipse fill="#add8e6" stroke="#000000" stroke-width="1.5" cx="291.2796" cy="-250.8" rx="43.7617" ry="18"/>
<text text-anchor="middle" x="291.2796" y="-246.6" font-family="Verdana" font-size="14.00" fill="#000000">ReadHeader</text>
</g>
<!-- (*geerpc/codec.GobCodec).ReadBody -->
<g id="node5" class="node">
<title>(*geerpc/codec.GobCodec).ReadBody</title>
<ellipse fill="#add8e6" stroke="#000000" stroke-width="1.5" cx="291.2796" cy="-311.8" rx="37.8706" ry="18"/>
<text text-anchor="middle" x="291.2796" y="-307.6" font-family="Verdana" font-size="14.00" fill="#000000">ReadBody</text>
</g>
<!-- (*geerpc/codec.GobCodec).Write$1 -->
<g id="node6" class="node">
<title>(*geerpc/codec.GobCodec).Write$1</title>
<ellipse fill="#add8e6" stroke="#000000" stroke-dasharray="1,5" cx="448.0458" cy="-372.8" rx="30.4103" ry="18"/>
<text text-anchor="middle" x="448.0458" y="-368.6" font-family="Verdana" font-size="14.00" fill="#000000">Write$1</text>
</g>
<!-- (*geerpc/codec.GobCodec).Close -->
<g id="node7" class="node">
<title>(*geerpc/codec.GobCodec).Close</title>
<ellipse fill="#add8e6" stroke="#000000" stroke-width="1.5" cx="578.5009" cy="-372.8" rx="27" ry="18"/>
<text text-anchor="middle" x="578.5009" y="-368.6" font-family="Verdana" font-size="14.00" fill="#000000">Close</text>
</g>
<!-- (*geerpc/codec.GobCodec).Write$1&#45;&gt;(*geerpc/codec.GobCodec).Close -->
<g id="edge6" class="edge">
<title>(*geerpc/codec.GobCodec).Write$1&#45;&gt;(*geerpc/codec.GobCodec).Close</title>
<path fill="none" stroke="#000000" d="M478.6317,-372.8C497.2721,-372.8 521.2296,-372.8 541.0071,-372.8"/>
<polygon fill="#000000" stroke="#000000" points="541.2104,-376.3001 551.2103,-372.8 541.2103,-369.3001 541.2104,-376.3001"/>
</g>
<!-- (*geerpc/codec.GobCodec).Write -->
<g id="node8" class="node">
<title>(*geerpc/codec.GobCodec).Write</title>
<ellipse fill="#add8e6" stroke="#000000" stroke-width="1.5" cx="291.2796" cy="-372.8" rx="27" ry="18"/>
<text text-anchor="middle" x="291.2796" y="-368.6" font-family="Verdana" font-size="14.00" fill="#000000">Write</text>
</g>
<!-- (*geerpc/codec.GobCodec).Write&#45;&gt;(*geerpc/codec.GobCodec).Write$1 -->
<g id="edge7" class="edge">
<title>(*geerpc/codec.GobCodec).Write&#45;&gt;(*geerpc/codec.GobCodec).Write$1</title>
<path fill="none" stroke="#000000" d="M318.5862,-372.8C338.3395,-372.8 365.7581,-372.8 390.279,-372.8"/>
<polygon fill="#000000" stroke="#000000" points="407.5699,-376.3 417.5698,-372.8 407.5698,-369.3 407.5699,-376.3"/>
<polyline fill="none" stroke="#000000" points="407.5698,-372.8 402.5698,-372.8001 "/>
<polygon fill="none" stroke="#000000" points="390.5698,-372.8001 396.5698,-368.8001 402.5698,-372.8001 396.5699,-376.8001 390.5698,-372.8001"/>
</g>
<!-- geerpc.NewClient -->
<g id="node9" class="node">
<title>geerpc.NewClient</title>
<ellipse fill="#ffe4b5" stroke="#000000" stroke-width="1.5" cx="98.4843" cy="-657.8" rx="38.6222" ry="18"/>
<text text-anchor="middle" x="98.4843" y="-653.6" font-family="Verdana" font-size="14.00" fill="#000000">NewClient</text>
</g>
<!-- geerpc.NewClient&#45;&gt;geerpc/codec.NewGobCodec -->
<g id="edge3" class="edge">
<title>geerpc.NewClient&#45;&gt;geerpc/codec.NewGobCodec</title>
<path fill="none" stroke="#8b4513" stroke-dasharray="5,2" d="M135.2014,-651.8962C162.805,-647.4577 201.1724,-641.2885 232.9587,-636.1776"/>
<polygon fill="#8b4513" stroke="#8b4513" points="233.7081,-639.6021 243.0256,-634.5589 232.5968,-632.6909 233.7081,-639.6021"/>
</g>
<!-- (*geerpc.Client).receive -->
<g id="node10" class="node">
<title>(*geerpc.Client).receive</title>
<ellipse fill="#ffe4b5" stroke="#000000" stroke-width=".5" cx="98.4843" cy="-205.8" rx="27.2358" ry="18"/>
<text text-anchor="middle" x="98.4843" y="-201.6" font-family="Verdana" font-size="14.00" fill="#000000">receive</text>
</g>
<!-- (*geerpc.Client).receive&#45;&gt;(*geerpc/codec.GobCodec).ReadHeader -->
<g id="edge1" class="edge">
<title>(*geerpc.Client).receive&#45;&gt;(*geerpc/codec.GobCodec).ReadHeader</title>
<path fill="none" stroke="#8b4513" stroke-dasharray="5,2" d="M124.4855,-211.8689C154.7374,-218.9299 205.3275,-230.7381 242.8754,-239.5021"/>
<polygon fill="#8b4513" stroke="#8b4513" points="242.5585,-243.0221 253.0923,-241.8868 244.1496,-236.2053 242.5585,-243.0221"/>
</g>
<!-- (*geerpc.Client).receive&#45;&gt;(*geerpc/codec.GobCodec).ReadBody -->
<g id="edge2" class="edge">
<title>(*geerpc.Client).receive&#45;&gt;(*geerpc/codec.GobCodec).ReadBody</title>
<path fill="none" stroke="#8b4513" stroke-dasharray="5,2" d="M123.9219,-213.1071C140.7035,-218.4628 162.8504,-226.5726 180.9685,-236.8 209.0762,-252.6662 211.1563,-263.8311 237.9685,-281.8 243.8367,-285.7327 250.2545,-289.6471 256.5401,-293.2871"/>
<polygon fill="#8b4513" stroke="#8b4513" points="255.1475,-296.5203 265.5753,-298.3941 258.592,-290.4264 255.1475,-296.5203"/>
</g>
<!-- (*geerpc.Client).Close -->
<g id="node11" class="node">
<title>(*geerpc.Client).Close</title>
<ellipse fill="#ffe4b5" stroke="#000000" stroke-width="1.5" cx="98.4843" cy="-144.8" rx="27" ry="18"/>
<text text-anchor="middle" x="98.4843" y="-140.6" font-family="Verdana" font-size="14.00" fill="#000000">Close</text>
</g>
<!-- (*geerpc.Client).Close&#45;&gt;(*geerpc/codec.GobCodec).Close -->
<g id="edge11" class="edge">
<title>(*geerpc.Client).Close&#45;&gt;(*geerpc/codec.GobCodec).Close</title>
<path fill="none" stroke="#8b4513" stroke-dasharray="5,2" d="M124.019,-150.797C144.6583,-155.3984 174.525,-161.5036 200.9685,-164.8 240.8595,-169.7727 251.0799,-169.8 291.2796,-169.8 291.2796,-169.8 291.2796,-169.8 448.0458,-169.8 530.301,-169.8 563.1211,-289.215 573.9505,-344.8683"/>
<polygon fill="#8b4513" stroke="#8b4513" points="570.5235,-345.5848 575.7776,-354.7851 577.4076,-344.3164 570.5235,-345.5848"/>
</g>
<!-- (*geerpc.Client).send -->
<g id="node12" class="node">
<title>(*geerpc.Client).send</title>
<ellipse fill="#ffe4b5" stroke="#000000" stroke-width=".5" cx="98.4843" cy="-266.8" rx="27" ry="18"/>
<text text-anchor="middle" x="98.4843" y="-262.6" font-family="Verdana" font-size="14.00" fill="#000000">send</text>
</g>
<!-- (*geerpc.Client).send&#45;&gt;(*geerpc/codec.GobCodec).Write -->
<g id="edge12" class="edge">
<title>(*geerpc.Client).send&#45;&gt;(*geerpc/codec.GobCodec).Write</title>
<path fill="none" stroke="#8b4513" stroke-dasharray="5,2" d="M124.0566,-272.8286C140.8952,-277.4248 163.0548,-284.6956 180.9685,-294.8 209.8153,-311.0713 210.751,-323.9295 237.9685,-342.8 245.1041,-347.7473 253.1194,-352.5944 260.7248,-356.9008"/>
<polygon fill="#8b4513" stroke="#8b4513" points="259.2645,-360.0924 269.7116,-361.8558 262.6444,-353.9624 259.2645,-360.0924"/>
</g>
<!-- (*geerpc.Server).readRequestHeader -->
<g id="node13" class="node">
<title>(*geerpc.Server).readRequestHeader</title>
<ellipse fill="#ffe4b5" stroke="#000000" stroke-width=".5" cx="98.4843" cy="-352.8" rx="66.4685" ry="18"/>
<text text-anchor="middle" x="98.4843" y="-348.6" font-family="Verdana" font-size="14.00" fill="#000000">readRequestHeader</text>
</g>
<!-- (*geerpc.Server).readRequestHeader&#45;&gt;(*geerpc/codec.GobCodec).ReadHeader -->
<g id="edge4" class="edge">
<title>(*geerpc.Server).readRequestHeader&#45;&gt;(*geerpc/codec.GobCodec).ReadHeader</title>
<path fill="none" stroke="#8b4513" stroke-dasharray="5,2" d="M129.0333,-336.6378C163.2445,-318.538 218.6515,-289.2245 255.028,-269.9792"/>
<polygon fill="#8b4513" stroke="#8b4513" points="257.093,-272.8464 264.2955,-265.0762 253.8195,-266.659 257.093,-272.8464"/>
</g>
<!-- (*geerpc.Server).readRequest -->
<g id="node14" class="node">
<title>(*geerpc.Server).readRequest</title>
<ellipse fill="#ffe4b5" stroke="#000000" stroke-width=".5" cx="98.4843" cy="-413.8" rx="43.7776" ry="18"/>
<text text-anchor="middle" x="98.4843" y="-409.6" font-family="Verdana" font-size="14.00" fill="#000000">readRequest</text>
</g>
<!-- (*geerpc.Server).readRequest&#45;&gt;(*geerpc/codec.GobCodec).ReadBody -->
<g id="edge5" class="edge">
<title>(*geerpc.Server).readRequest&#45;&gt;(*geerpc/codec.GobCodec).ReadBody</title>
<path fill="none" stroke="#8b4513" stroke-dasharray="5,2" d="M134.3161,-403.1617C149.1507,-398.1517 166.2839,-391.561 180.9685,-383.8 208.5585,-369.2184 211.7827,-359.7744 237.9685,-342.8 244.2686,-338.7161 251.1173,-334.5435 257.7415,-330.6372"/>
<polygon fill="#8b4513" stroke="#8b4513" points="259.6765,-333.5608 266.5626,-325.5089 256.1583,-327.5092 259.6765,-333.5608"/>
</g>
<!-- (*geerpc.Server).sendResponse -->
<g id="node15" class="node">
<title>(*geerpc.Server).sendResponse</title>
<ellipse fill="#ffe4b5" stroke="#000000" stroke-width=".5" cx="98.4843" cy="-474.8" rx="49.2237" ry="18"/>
<text text-anchor="middle" x="98.4843" y="-470.6" font-family="Verdana" font-size="14.00" fill="#000000">sendResponse</text>
</g>
<!-- (*geerpc.Server).sendResponse&#45;&gt;(*geerpc/codec.GobCodec).Write -->
<g id="edge8" class="edge">
<title>(*geerpc.Server).sendResponse&#45;&gt;(*geerpc/codec.GobCodec).Write</title>
<path fill="none" stroke="#8b4513" stroke-dasharray="5,2" d="M136.198,-463.1248C150.5225,-458.1656 166.7935,-451.8858 180.9685,-444.8 211.1734,-429.7012 243.233,-408.067 264.9594,-392.4595"/>
<polygon fill="#8b4513" stroke="#8b4513" points="267.2872,-395.0945 273.3193,-386.3845 263.1721,-389.4318 267.2872,-395.0945"/>
</g>
<!-- (*geerpc.Server).serveCodec -->
<g id="node16" class="node">
<title>(*geerpc.Server).serveCodec</title>
<ellipse fill="#ffe4b5" stroke="#000000" stroke-width=".5" cx="98.4843" cy="-535.8" rx="41.3782" ry="18"/>
<text text-anchor="middle" x="98.4843" y="-531.6" font-family="Verdana" font-size="14.00" fill="#000000">serveCodec</text>
</g>
<!-- (*geerpc.Server).serveCodec&#45;&gt;(*geerpc/codec.GobCodec).Close -->
<g id="edge9" class="edge">
<title>(*geerpc.Server).serveCodec&#45;&gt;(*geerpc/codec.GobCodec).Close</title>
<path fill="none" stroke="#8b4513" stroke-dasharray="5,2" d="M137.0417,-528.9168C152.3152,-524.5113 169.0394,-517.3571 180.9685,-505.8 198.1584,-489.1462 181.5281,-469.761 200.9685,-455.8 233.6207,-432.3511 251.0799,-450.8 291.2796,-450.8 291.2796,-450.8 291.2796,-450.8 448.0458,-450.8 491.6201,-450.8 533.259,-418.3465 557.3293,-395.3069"/>
<polygon fill="#8b4513" stroke="#8b4513" points="559.8567,-397.7299 564.5072,-388.2103 554.9352,-392.752 559.8567,-397.7299"/>
</g>
<!-- (*geerpc.Server).ServeConn -->
<g id="node17" class="node">
<title>(*geerpc.Server).ServeConn</title>
<ellipse fill="#ffe4b5" stroke="#000000" stroke-width="1.5" cx="98.4843" cy="-596.8" rx="39.884" ry="18"/>
<text text-anchor="middle" x="98.4843" y="-592.6" font-family="Verdana" font-size="14.00" fill="#000000">ServeConn</text>
</g>
<!-- (*geerpc.Server).ServeConn&#45;&gt;geerpc/codec.NewGobCodec -->
<g id="edge10" class="edge">
<title>(*geerpc.Server).ServeConn&#45;&gt;geerpc/codec.NewGobCodec</title>
<path fill="none" stroke="#8b4513" stroke-dasharray="5,2" d="M136.1148,-602.6555C163.6041,-606.933 201.4036,-612.8148 232.8117,-617.7021"/>
<polygon fill="#8b4513" stroke="#8b4513" points="232.3441,-621.1714 242.7634,-619.2506 233.4205,-614.2546 232.3441,-621.1714"/>
</g>
</g>
</svg>
