<?xml version="1.0" encoding="UTF-8" standalone="no"?>
<!DOCTYPE svg PUBLIC "-//W3C//DTD SVG 1.1//EN"
 "http://www.w3.org/Graphics/SVG/1.1/DTD/svg11.dtd">
<!-- Generated by graphviz version 2.40.1 (20161225.0304)
 -->
<!-- Title: gocallvis Pages: 1 -->
<svg width="1187pt" height="613pt"
 viewBox="0.00 0.00 1187.35 613.39" xmlns="http://www.w3.org/2000/svg" xmlns:xlink="http://www.w3.org/1999/xlink">
<g id="graph0" class="graph" transform="scale(1 1) rotate(0) translate(0 613.3932)">
<title>gocallvis</title>
<polygon fill="#d3d3d3" stroke="transparent" points="0,0 0,-613.3932 1187.3494,-613.3932 1187.3494,0 0,0"/>
<text text-anchor="middle" x="46.507" y="-8.2" font-family="Arial" font-size="14.00" fill="#000000">geerpc/main</text>
<g id="clust1" class="cluster">
<title>cluster_focus</title>
<polygon fill="#e6ecfa" stroke="#000000" stroke-width=".5" points="8,-36.3932 8,-605.3932 1179.3494,-605.3932 1179.3494,-36.3932 8,-36.3932"/>
<text text-anchor="middle" x="593.6747" y="-585.1932" font-family="Arial" font-size="18.00" fill="#000000">xclient</text>
</g>
<g id="clust7" class="cluster">
<title>cluster_geerpc/main</title>
<g id="a_clust7"><a xlink:href="/?f=geerpc/main" xlink:title="package: geerpc/main">
<polygon fill="#ffffe0" stroke="#000000" stroke-width=".8" points="16,-244.3932 16,-567.3932 117.5232,-567.3932 117.5232,-244.3932 16,-244.3932"/>
<text text-anchor="middle" x="66.7616" y="-548.9932" font-family="Tahoma bold" font-size="16.00" fill="#000000">main</text>
</a>
</g>
</g>
<g id="clust5" class="cluster">
<title>cluster_geerpc</title>
<g id="a_clust5"><a xlink:href="/?f=geerpc" xlink:title="package: geerpc">
<polygon fill="#ffffe0" stroke="#000000" stroke-width=".8" points="1057.345,-262.3932 1057.345,-558.3932 1171.3494,-558.3932 1171.3494,-262.3932 1057.345,-262.3932"/>
<text text-anchor="middle" x="1114.3472" y="-539.9932" font-family="Tahoma bold" font-size="16.00" fill="#000000">geerpc</text>
</a>
</g>
</g>
<g id="clust6" class="cluster">
<title>cluster_*geerpc.Client</title>
<g id="a_clust6"><a xlink:href="/?f=geerpc" xlink:title="type: *geerpc.Client">
<path fill="#eed8ae" stroke="#000000" stroke-width=".5" d="M1077.345,-270.3932C1077.345,-270.3932 1151.3494,-270.3932 1151.3494,-270.3932 1157.3494,-270.3932 1163.3494,-276.3932 1163.3494,-282.3932 1163.3494,-282.3932 1163.3494,-458.3932 1163.3494,-458.3932 1163.3494,-464.3932 1157.3494,-470.3932 1151.3494,-470.3932 1151.3494,-470.3932 1077.345,-470.3932 1077.345,-470.3932 1071.345,-470.3932 1065.345,-464.3932 1065.345,-458.3932 1065.345,-458.3932 1065.345,-282.3932 1065.345,-282.3932 1065.345,-276.3932 1071.345,-270.3932 1077.345,-270.3932"/>
<text text-anchor="middle" x="1114.3472" y="-278.8932" font-family="Tahoma bold" font-size="15.00" fill="#222222">(*Client)</text>
</a>
</g>
</g>
<g id="clust4" class="cluster">
<title>cluster_*geerpc/xclient.XClient</title>
<g id="a_clust4"><a xlink:title="type: *geerpc/xclient.XClient">
<path fill="#b0c4de" stroke="#000000" stroke-width=".5" d="M241.9014,-348.3932C241.9014,-348.3932 934.2124,-348.3932 934.2124,-348.3932 940.2124,-348.3932 946.2124,-354.3932 946.2124,-360.3932 946.2124,-360.3932 946.2124,-475.3932 946.2124,-475.3932 946.2124,-481.3932 940.2124,-487.3932 934.2124,-487.3932 934.2124,-487.3932 241.9014,-487.3932 241.9014,-487.3932 235.9014,-487.3932 229.9014,-481.3932 229.9014,-475.3932 229.9014,-475.3932 229.9014,-360.3932 229.9014,-360.3932 229.9014,-354.3932 235.9014,-348.3932 241.9014,-348.3932"/>
<text text-anchor="middle" x="588.0569" y="-356.8932" font-family="Arial" font-size="15.00" fill="#222222">(*XClient)</text>
</a>
</g>
</g>
<g id="clust3" class="cluster">
<title>cluster_*geerpc/xclient.MultiServersDiscovery</title>
<g id="a_clust3"><a xlink:title="type: *geerpc/xclient.MultiServersDiscovery">
<path fill="#b0c4de" stroke="#000000" stroke-width=".5" d="M833.2124,-54.3932C833.2124,-54.3932 989.2124,-54.3932 989.2124,-54.3932 995.2124,-54.3932 1001.2124,-60.3932 1001.2124,-66.3932 1001.2124,-66.3932 1001.2124,-181.3932 1001.2124,-181.3932 1001.2124,-187.3932 995.2124,-193.3932 989.2124,-193.3932 989.2124,-193.3932 833.2124,-193.3932 833.2124,-193.3932 827.2124,-193.3932 821.2124,-187.3932 821.2124,-181.3932 821.2124,-181.3932 821.2124,-66.3932 821.2124,-66.3932 821.2124,-60.3932 827.2124,-54.3932 833.2124,-54.3932"/>
<text text-anchor="middle" x="911.2124" y="-62.8932" font-family="Arial" font-size="15.00" fill="#222222">(*MultiServersDiscovery)</text>
</a>
</g>
</g>
<g id="clust2" class="cluster">
<title>cluster_*geerpc/xclient.GeeRegistryDiscovery</title>
<g id="a_clust2"><a xlink:title="type: *geerpc/xclient.GeeRegistryDiscovery">
<path fill="#b0c4de" stroke="#000000" stroke-width=".5" d="M696.0799,-201.3932C696.0799,-201.3932 936.345,-201.3932 936.345,-201.3932 942.345,-201.3932 948.345,-207.3932 948.345,-213.3932 948.345,-213.3932 948.345,-328.3932 948.345,-328.3932 948.345,-334.3932 942.345,-340.3932 936.345,-340.3932 936.345,-340.3932 696.0799,-340.3932 696.0799,-340.3932 690.0799,-340.3932 684.0799,-334.3932 684.0799,-328.3932 684.0799,-328.3932 684.0799,-213.3932 684.0799,-213.3932 684.0799,-207.3932 690.0799,-201.3932 696.0799,-201.3932"/>
<text text-anchor="middle" x="816.2124" y="-209.8932" font-family="Arial" font-size="15.00" fill="#222222">(*GeeRegistryDiscovery)</text>
</a>
</g>
</g>
<!-- geerpc/xclient.NewGeeRegistryDiscovery -->
<g id="node1" class="node">
<title>geerpc/xclient.NewGeeRegistryDiscovery</title>
<ellipse fill="#add8e6" stroke="#000000" stroke-width="1.5" cx="274.0693" cy="-270.3932" rx="91.5922" ry="18"/>
<text text-anchor="middle" x="274.0693" y="-266.1932" font-family="Verdana" font-size="14.00" fill="#000000">NewGeeRegistryDiscovery</text>
</g>
<!-- geerpc/xclient.NewMultiServerDiscovery -->
<g id="node2" class="node">
<title>geerpc/xclient.NewMultiServerDiscovery</title>
<ellipse fill="#add8e6" stroke="#000000" stroke-width="1.5" cx="528.8476" cy="-62.3932" rx="90.4651" ry="18"/>
<text text-anchor="middle" x="528.8476" y="-58.1932" font-family="Verdana" font-size="14.00" fill="#000000">NewMultiServerDiscovery</text>
</g>
<!-- geerpc/xclient.NewGeeRegistryDiscovery&#45;&gt;geerpc/xclient.NewMultiServerDiscovery -->
<g id="edge1" class="edge">
<title>geerpc/xclient.NewGeeRegistryDiscovery&#45;&gt;geerpc/xclient.NewMultiServerDiscovery</title>
<path fill="none" stroke="#000000" d="M282.5008,-252.3677C299.7723,-217.4313 342.5785,-140.3456 401.6154,-99.3932 415.8359,-89.5288 432.6868,-82.2668 449.3939,-76.9295"/>
<polygon fill="#000000" stroke="#000000" points="450.6122,-80.2185 459.1932,-74.0042 448.6098,-73.511 450.6122,-80.2185"/>
</g>
<!-- geerpc/xclient.NewXClient -->
<g id="node3" class="node">
<title>geerpc/xclient.NewXClient</title>
<ellipse fill="#add8e6" stroke="#000000" stroke-width="1.5" cx="274.0693" cy="-522.3932" rx="44.5484" ry="18"/>
<text text-anchor="middle" x="274.0693" y="-518.1932" font-family="Verdana" font-size="14.00" fill="#000000">NewXClient</text>
</g>
<!-- (*geerpc/xclient.GeeRegistryDiscovery).Get -->
<g id="node4" class="node">
<title>(*geerpc/xclient.GeeRegistryDiscovery).Get</title>
<ellipse fill="#add8e6" stroke="#000000" stroke-width="1.5" cx="719.0799" cy="-314.3932" rx="27" ry="18"/>
<text text-anchor="middle" x="719.0799" y="-310.1932" font-family="Verdana" font-size="14.00" fill="#000000">Get</text>
</g>
<!-- (*geerpc/xclient.GeeRegistryDiscovery).Refresh -->
<g id="node5" class="node">
<title>(*geerpc/xclient.GeeRegistryDiscovery).Refresh</title>
<ellipse fill="#add8e6" stroke="#000000" stroke-width="1.5" cx="911.2124" cy="-274.3932" rx="29.2657" ry="18"/>
<text text-anchor="middle" x="911.2124" y="-270.1932" font-family="Verdana" font-size="14.00" fill="#000000">Refresh</text>
</g>
<!-- (*geerpc/xclient.GeeRegistryDiscovery).Get&#45;&gt;(*geerpc/xclient.GeeRegistryDiscovery).Refresh -->
<g id="edge12" class="edge">
<title>(*geerpc/xclient.GeeRegistryDiscovery).Get&#45;&gt;(*geerpc/xclient.GeeRegistryDiscovery).Refresh</title>
<path fill="none" stroke="#000000" d="M744.9917,-308.9986C778.0421,-302.1179 835.4511,-290.1659 873.3909,-282.2672"/>
<polygon fill="#000000" stroke="#000000" points="874.4624,-285.6193 883.5391,-280.1545 873.0356,-278.7662 874.4624,-285.6193"/>
</g>
<!-- (*geerpc/xclient.MultiServersDiscovery).Get -->
<g id="node7" class="node">
<title>(*geerpc/xclient.MultiServersDiscovery).Get</title>
<ellipse fill="#add8e6" stroke="#000000" stroke-width="1.5" cx="911.2124" cy="-167.3932" rx="27" ry="18"/>
<text text-anchor="middle" x="911.2124" y="-163.1932" font-family="Verdana" font-size="14.00" fill="#000000">Get</text>
</g>
<!-- (*geerpc/xclient.GeeRegistryDiscovery).Get&#45;&gt;(*geerpc/xclient.MultiServersDiscovery).Get -->
<g id="edge13" class="edge">
<title>(*geerpc/xclient.GeeRegistryDiscovery).Get&#45;&gt;(*geerpc/xclient.MultiServersDiscovery).Get</title>
<path fill="none" stroke="#000000" d="M733.1878,-298.9062C737.3687,-294.2661 741.936,-289.147 746.0799,-284.3932 780.095,-245.372 778.0735,-224.0063 821.2124,-195.3932 837.2857,-184.7322 857.6367,-177.9526 874.9192,-173.7403"/>
<polygon fill="#000000" stroke="#000000" points="875.6948,-177.1534 884.6847,-171.5469 874.1607,-170.3236 875.6948,-177.1534"/>
</g>
<!-- (*geerpc/xclient.GeeRegistryDiscovery).GetAll -->
<g id="node6" class="node">
<title>(*geerpc/xclient.GeeRegistryDiscovery).GetAll</title>
<ellipse fill="#add8e6" stroke="#000000" stroke-width="1.5" cx="719.0799" cy="-253.3932" rx="27" ry="18"/>
<text text-anchor="middle" x="719.0799" y="-249.1932" font-family="Verdana" font-size="14.00" fill="#000000">GetAll</text>
</g>
<!-- (*geerpc/xclient.GeeRegistryDiscovery).GetAll&#45;&gt;(*geerpc/xclient.GeeRegistryDiscovery).Refresh -->
<g id="edge18" class="edge">
<title>(*geerpc/xclient.GeeRegistryDiscovery).GetAll&#45;&gt;(*geerpc/xclient.GeeRegistryDiscovery).Refresh</title>
<path fill="none" stroke="#000000" d="M745.7951,-256.3131C778.594,-259.8981 834.4871,-266.0071 872.1188,-270.1203"/>
<polygon fill="#000000" stroke="#000000" points="871.8931,-273.6164 882.2142,-271.2237 872.6537,-266.6578 871.8931,-273.6164"/>
</g>
<!-- (*geerpc/xclient.MultiServersDiscovery).GetAll -->
<g id="node8" class="node">
<title>(*geerpc/xclient.MultiServersDiscovery).GetAll</title>
<ellipse fill="#add8e6" stroke="#000000" stroke-width="1.5" cx="911.2124" cy="-106.3932" rx="27" ry="18"/>
<text text-anchor="middle" x="911.2124" y="-102.1932" font-family="Verdana" font-size="14.00" fill="#000000">GetAll</text>
</g>
<!-- (*geerpc/xclient.GeeRegistryDiscovery).GetAll&#45;&gt;(*geerpc/xclient.MultiServersDiscovery).GetAll -->
<g id="edge19" class="edge">
<title>(*geerpc/xclient.GeeRegistryDiscovery).GetAll&#45;&gt;(*geerpc/xclient.MultiServersDiscovery).GetAll</title>
<path fill="none" stroke="#000000" d="M729.578,-236.7326C746.1364,-211.738 780.6417,-164.5753 821.2124,-137.3932 837.5095,-126.4743 858.0435,-119.0161 875.3812,-114.1569"/>
<polygon fill="#000000" stroke="#000000" points="876.3799,-117.5135 885.1639,-111.5897 874.603,-110.7427 876.3799,-117.5135"/>
</g>
<!-- (*geerpc/xclient.XClient).Close -->
<g id="node9" class="node">
<title>(*geerpc/xclient.XClient).Close</title>
<ellipse fill="#add8e6" stroke="#000000" stroke-width="1.5" cx="274.0693" cy="-400.3932" rx="27" ry="18"/>
<text text-anchor="middle" x="274.0693" y="-396.1932" font-family="Verdana" font-size="14.00" fill="#000000">Close</text>
</g>
<!-- (*geerpc.Client).Close -->
<g id="node16" class="node">
<title>(*geerpc.Client).Close</title>
<ellipse fill="#ffe4b5" stroke="#000000" stroke-width="1.5" cx="1114.3472" cy="-322.3932" rx="27" ry="18"/>
<text text-anchor="middle" x="1114.3472" y="-318.1932" font-family="Verdana" font-size="14.00" fill="#000000">Close</text>
</g>
<!-- (*geerpc/xclient.XClient).Close&#45;&gt;(*geerpc.Client).Close -->
<g id="edge4" class="edge">
<title>(*geerpc/xclient.XClient).Close&#45;&gt;(*geerpc.Client).Close</title>
<path fill="none" stroke="#8b4513" d="M301.2466,-398.7471C320.5599,-396.4705 346.3774,-391.0856 365.6154,-378.3932 410.9492,-348.4837 398.359,-316.8507 438.6154,-280.3932 585.6752,-147.2111 630.0303,-103.4349 821.2124,-50.3932 898.3006,-29.0058 934.6622,-5.9965 1001.2124,-50.3932 1084.7491,-106.1218 1106.6963,-236.3698 1112.3887,-294.0457"/>
<polygon fill="#8b4513" stroke="#8b4513" points="1108.9245,-294.6039 1113.2989,-304.2535 1115.8968,-293.9821 1108.9245,-294.6039"/>
</g>
<!-- (*geerpc/xclient.XClient).dial -->
<g id="node10" class="node">
<title>(*geerpc/xclient.XClient).dial</title>
<ellipse fill="#add8e6" stroke="#000000" stroke-width=".5" cx="911.2124" cy="-400.3932" rx="27" ry="18"/>
<text text-anchor="middle" x="911.2124" y="-396.1932" font-family="Verdana" font-size="14.00" fill="#000000">dial</text>
</g>
<!-- geerpc.XDial -->
<g id="node15" class="node">
<title>geerpc.XDial</title>
<ellipse fill="#ffe4b5" stroke="#000000" stroke-width="1.5" cx="1114.3472" cy="-505.3932" rx="27" ry="18"/>
<text text-anchor="middle" x="1114.3472" y="-501.1932" font-family="Verdana" font-size="14.00" fill="#000000">XDial</text>
</g>
<!-- (*geerpc/xclient.XClient).dial&#45;&gt;geerpc.XDial -->
<g id="edge8" class="edge">
<title>(*geerpc/xclient.XClient).dial&#45;&gt;geerpc.XDial</title>
<path fill="none" stroke="#8b4513" d="M932.4785,-411.529C960.8965,-426.3925 1012.8442,-453.5019 1057.345,-476.3932 1065.9011,-480.7944 1075.1961,-485.5389 1083.7495,-489.89"/>
<polygon fill="#8b4513" stroke="#8b4513" points="1082.169,-493.0128 1092.6697,-494.4221 1085.3398,-486.7721 1082.169,-493.0128"/>
</g>
<!-- (*geerpc/xclient.XClient).dial&#45;&gt;(*geerpc.Client).Close -->
<g id="edge6" class="edge">
<title>(*geerpc/xclient.XClient).dial&#45;&gt;(*geerpc.Client).Close</title>
<path fill="none" stroke="#8b4513" d="M934.9121,-391.2929C971.0726,-377.408 1040.1422,-350.8865 1081.2378,-335.1066"/>
<polygon fill="#8b4513" stroke="#8b4513" points="1082.7176,-338.2876 1090.7984,-331.4355 1080.2084,-331.7528 1082.7176,-338.2876"/>
</g>
<!-- (*geerpc.Client).IsAvailable -->
<g id="node17" class="node">
<title>(*geerpc.Client).IsAvailable</title>
<ellipse fill="#ffe4b5" stroke="#000000" stroke-width="1.5" cx="1114.3472" cy="-383.3932" rx="41.0044" ry="18"/>
<text text-anchor="middle" x="1114.3472" y="-379.1932" font-family="Verdana" font-size="14.00" fill="#000000">IsAvailable</text>
</g>
<!-- (*geerpc/xclient.XClient).dial&#45;&gt;(*geerpc.Client).IsAvailable -->
<g id="edge7" class="edge">
<title>(*geerpc/xclient.XClient).dial&#45;&gt;(*geerpc.Client).IsAvailable</title>
<path fill="none" stroke="#8b4513" d="M938.1872,-398.1357C970.1556,-395.4603 1024.0969,-390.9461 1063.8862,-387.6162"/>
<polygon fill="#8b4513" stroke="#8b4513" points="1064.2583,-391.0974 1073.9315,-386.7755 1063.6744,-384.1218 1064.2583,-391.0974"/>
</g>
<!-- (*geerpc/xclient.XClient).call -->
<g id="node11" class="node">
<title>(*geerpc/xclient.XClient).call</title>
<ellipse fill="#add8e6" stroke="#000000" stroke-width=".5" cx="719.0799" cy="-421.3932" rx="27" ry="18"/>
<text text-anchor="middle" x="719.0799" y="-417.1932" font-family="Verdana" font-size="14.00" fill="#000000">call</text>
</g>
<!-- (*geerpc/xclient.XClient).call&#45;&gt;(*geerpc/xclient.XClient).dial -->
<g id="edge9" class="edge">
<title>(*geerpc/xclient.XClient).call&#45;&gt;(*geerpc/xclient.XClient).dial</title>
<path fill="none" stroke="#000000" d="M745.7951,-418.4732C779.2538,-414.8162 836.745,-408.5324 874.3671,-404.4204"/>
<polygon fill="#000000" stroke="#000000" points="874.8546,-407.888 884.4151,-403.3221 874.094,-400.9295 874.8546,-407.888"/>
</g>
<!-- (*geerpc.Client).Call -->
<g id="node18" class="node">
<title>(*geerpc.Client).Call</title>
<ellipse fill="#ffe4b5" stroke="#000000" stroke-width="1.5" cx="1114.3472" cy="-444.3932" rx="27" ry="18"/>
<text text-anchor="middle" x="1114.3472" y="-440.1932" font-family="Verdana" font-size="14.00" fill="#000000">Call</text>
</g>
<!-- (*geerpc/xclient.XClient).call&#45;&gt;(*geerpc.Client).Call -->
<g id="edge10" class="edge">
<title>(*geerpc/xclient.XClient).call&#45;&gt;(*geerpc.Client).Call</title>
<path fill="none" stroke="#8b4513" d="M745.9265,-424.4161C766.5052,-426.6375 795.6218,-429.5742 821.2124,-431.3932 913.1056,-437.9249 1021.4523,-441.7158 1077.1482,-443.3786"/>
<polygon fill="#8b4513" stroke="#8b4513" points="1077.1442,-446.8799 1087.2423,-443.6738 1077.3489,-439.8829 1077.1442,-446.8799"/>
</g>
<!-- (*geerpc/xclient.XClient).Call -->
<g id="node12" class="node">
<title>(*geerpc/xclient.XClient).Call</title>
<ellipse fill="#add8e6" stroke="#000000" stroke-width="1.5" cx="528.8476" cy="-461.3932" rx="27" ry="18"/>
<text text-anchor="middle" x="528.8476" y="-457.1932" font-family="Verdana" font-size="14.00" fill="#000000">Call</text>
</g>
<!-- (*geerpc/xclient.XClient).Call&#45;&gt;(*geerpc/xclient.GeeRegistryDiscovery).Get -->
<g id="edge14" class="edge">
<title>(*geerpc/xclient.XClient).Call&#45;&gt;(*geerpc/xclient.GeeRegistryDiscovery).Get</title>
<path fill="none" stroke="#000000" stroke-dasharray="5,2" d="M555.3268,-457.066C574.4534,-452.932 600.1449,-445.2132 619.0799,-431.3932 658.6444,-402.5165 650.2139,-377.7811 684.0799,-342.3932 686.7095,-339.6455 689.6107,-336.9263 692.584,-334.325"/>
<polygon fill="#000000" stroke="#000000" points="695.0201,-336.8518 700.4859,-327.7757 690.5532,-331.4623 695.0201,-336.8518"/>
</g>
<!-- (*geerpc/xclient.XClient).Call&#45;&gt;(*geerpc/xclient.XClient).call -->
<g id="edge11" class="edge">
<title>(*geerpc/xclient.XClient).Call&#45;&gt;(*geerpc/xclient.XClient).call</title>
<path fill="none" stroke="#000000" d="M554.8998,-455.9152C588.1053,-448.9331 645.6754,-436.8279 683.0644,-428.9661"/>
<polygon fill="#000000" stroke="#000000" points="683.9721,-432.3519 693.0379,-426.869 682.5317,-425.5017 683.9721,-432.3519"/>
</g>
<!-- (*geerpc/xclient.XClient).Broadcast$1 -->
<g id="node13" class="node">
<title>(*geerpc/xclient.XClient).Broadcast$1</title>
<ellipse fill="#add8e6" stroke="#000000" stroke-dasharray="1,5" cx="528.8476" cy="-400.3932" rx="44.1653" ry="18"/>
<text text-anchor="middle" x="528.8476" y="-396.1932" font-family="Verdana" font-size="14.00" fill="#000000">Broadcast$1</text>
</g>
<!-- (*geerpc/xclient.XClient).Broadcast$1&#45;&gt;(*geerpc/xclient.XClient).call -->
<g id="edge16" class="edge">
<title>(*geerpc/xclient.XClient).Broadcast$1&#45;&gt;(*geerpc/xclient.XClient).call</title>
<path fill="none" stroke="#000000" d="M571.5395,-405.106C604.8051,-408.7782 650.5119,-413.8239 682.1999,-417.322"/>
<polygon fill="#000000" stroke="#000000" points="682.0469,-420.8262 692.3706,-418.4447 682.815,-413.8685 682.0469,-420.8262"/>
</g>
<!-- (*geerpc/xclient.XClient).Broadcast -->
<g id="node14" class="node">
<title>(*geerpc/xclient.XClient).Broadcast</title>
<ellipse fill="#add8e6" stroke="#000000" stroke-width="1.5" cx="274.0693" cy="-461.3932" rx="36.3366" ry="18"/>
<text text-anchor="middle" x="274.0693" y="-457.1932" font-family="Verdana" font-size="14.00" fill="#000000">Broadcast</text>
</g>
<!-- (*geerpc/xclient.XClient).Broadcast&#45;&gt;(*geerpc/xclient.GeeRegistryDiscovery).GetAll -->
<g id="edge20" class="edge">
<title>(*geerpc/xclient.XClient).Broadcast&#45;&gt;(*geerpc/xclient.GeeRegistryDiscovery).GetAll</title>
<path fill="none" stroke="#000000" stroke-dasharray="5,2" d="M307.089,-453.8315C325.0779,-448.9233 347.3327,-441.5331 365.6154,-431.3932 402.5901,-410.8865 402.4743,-392.3357 438.6154,-370.3932 521.6153,-320.001 630.2329,-281.5933 684.7349,-263.9837"/>
<polygon fill="#000000" stroke="#000000" points="685.803,-267.3168 694.2635,-260.9394 683.6726,-260.6488 685.803,-267.3168"/>
</g>
<!-- (*geerpc/xclient.XClient).Broadcast&#45;&gt;(*geerpc/xclient.XClient).Broadcast$1 -->
<g id="edge17" class="edge">
<title>(*geerpc/xclient.XClient).Broadcast&#45;&gt;(*geerpc/xclient.XClient).Broadcast$1</title>
<path fill="none" stroke="#000000" d="M306.8555,-453.5434C347.4875,-443.8151 417.5361,-427.0438 468.0944,-414.939"/>
<polygon fill="#000000" stroke="#000000" points="481.8839,-415.2364 490.794,-409.5041 480.2539,-408.4288 481.8839,-415.2364"/>
<polyline fill="none" stroke="#000000" points="481.0689,-411.8326 476.2063,-412.9968 "/>
<ellipse fill="none" stroke="#000000" cx="472.3163" cy="-413.9282" rx="4" ry="4"/>
</g>
<!-- geerpc/main.call -->
<g id="node19" class="node">
<title>geerpc/main.call</title>
<ellipse fill="#ffe4b5" stroke="#000000" stroke-width=".5" cx="66.7616" cy="-270.3932" rx="27" ry="18"/>
<text text-anchor="middle" x="66.7616" y="-266.1932" font-family="Verdana" font-size="14.00" fill="#000000">call</text>
</g>
<!-- geerpc/main.call&#45;&gt;geerpc/xclient.NewGeeRegistryDiscovery -->
<g id="edge2" class="edge">
<title>geerpc/main.call&#45;&gt;geerpc/xclient.NewGeeRegistryDiscovery</title>
<path fill="none" stroke="#8b4513" d="M93.8635,-270.3932C114.0879,-270.3932 143.0973,-270.3932 171.9484,-270.3932"/>
<polygon fill="#8b4513" stroke="#8b4513" points="172.1321,-273.8933 182.132,-270.3932 172.132,-266.8933 172.1321,-273.8933"/>
</g>
<!-- geerpc/main.call&#45;&gt;geerpc/xclient.NewXClient -->
<g id="edge3" class="edge">
<title>geerpc/main.call&#45;&gt;geerpc/xclient.NewXClient</title>
<path fill="none" stroke="#8b4513" d="M89.7622,-280.0744C99.4919,-285.1717 110.2362,-292.2797 117.5232,-301.3932 173.7848,-371.7564 118.1966,-430.3184 182.5232,-493.3932 193.0657,-503.7305 207.2701,-510.3862 221.341,-514.6704"/>
<polygon fill="#8b4513" stroke="#8b4513" points="220.4485,-518.0547 231.0145,-517.2736 222.2676,-511.2951 220.4485,-518.0547"/>
</g>
<!-- geerpc/main.call$1 -->
<g id="node20" class="node">
<title>geerpc/main.call$1</title>
<ellipse fill="#ffe4b5" stroke="#000000" stroke-dasharray="1,5" cx="66.7616" cy="-453.3932" rx="27" ry="18"/>
<text text-anchor="middle" x="66.7616" y="-449.1932" font-family="Verdana" font-size="14.00" fill="#000000">call$1</text>
</g>
<!-- geerpc/main.call$1&#45;&gt;(*geerpc/xclient.XClient).Close -->
<g id="edge5" class="edge">
<title>geerpc/main.call$1&#45;&gt;(*geerpc/xclient.XClient).Close</title>
<path fill="none" stroke="#8b4513" d="M92.1816,-446.8943C129.0387,-437.4715 197.4468,-419.9824 239.0536,-409.3453"/>
<polygon fill="#8b4513" stroke="#8b4513" points="239.9445,-412.7301 248.766,-406.8622 238.2107,-405.9483 239.9445,-412.7301"/>
</g>
<!-- geerpc/main.foo -->
<g id="node21" class="node">
<title>geerpc/main.foo</title>
<ellipse fill="#ffe4b5" stroke="#000000" stroke-width=".5" cx="66.7616" cy="-514.3932" rx="27" ry="18"/>
<text text-anchor="middle" x="66.7616" y="-510.1932" font-family="Verdana" font-size="14.00" fill="#000000">foo</text>
</g>
<!-- geerpc/main.foo&#45;&gt;(*geerpc/xclient.XClient).Call -->
<g id="edge15" class="edge">
<title>geerpc/main.foo&#45;&gt;(*geerpc/xclient.XClient).Call</title>
<path fill="none" stroke="#8b4513" d="M87.7552,-525.8121C110.38,-537.4159 147.8226,-554.6174 182.5232,-561.3932 262.3892,-576.9881 287.2949,-583.4764 365.6154,-561.3932 419.9981,-546.0595 474.1424,-506.9867 504.3789,-482.4693"/>
<polygon fill="#8b4513" stroke="#8b4513" points="506.7676,-485.036 512.2534,-475.9719 502.3126,-479.6366 506.7676,-485.036"/>
</g>
<!-- geerpc/main.foo&#45;&gt;(*geerpc/xclient.XClient).Broadcast -->
<g id="edge21" class="edge">
<title>geerpc/main.foo&#45;&gt;(*geerpc/xclient.XClient).Broadcast</title>
<path fill="none" stroke="#8b4513" d="M92.0047,-507.4321C115.4228,-501.0222 151.2671,-491.3325 182.5232,-483.3932 198.3784,-479.3658 215.8277,-475.1251 231.2017,-471.4534"/>
<polygon fill="#8b4513" stroke="#8b4513" points="232.0486,-474.8497 240.9673,-469.1306 230.4287,-468.0396 232.0486,-474.8497"/>
</g>
<!-- geerpc/main.broadcast -->
<g id="node22" class="node">
<title>geerpc/main.broadcast</title>
<ellipse fill="#ffe4b5" stroke="#000000" stroke-width=".5" cx="66.7616" cy="-392.3932" rx="34.6946" ry="18"/>
<text text-anchor="middle" x="66.7616" y="-388.1932" font-family="Verdana" font-size="14.00" fill="#000000">broadcast</text>
</g>
<!-- geerpc/main.broadcast&#45;&gt;geerpc/xclient.NewGeeRegistryDiscovery -->
<g id="edge22" class="edge">
<title>geerpc/main.broadcast&#45;&gt;geerpc/xclient.NewGeeRegistryDiscovery</title>
<path fill="none" stroke="#8b4513" d="M90.1395,-378.6354C125.6299,-357.7493 193.4721,-317.8244 236.1023,-292.7367"/>
<polygon fill="#8b4513" stroke="#8b4513" points="237.9526,-295.709 244.7957,-287.6206 234.4022,-289.6761 237.9526,-295.709"/>
</g>
<!-- geerpc/main.broadcast&#45;&gt;geerpc/xclient.NewXClient -->
<g id="edge23" class="edge">
<title>geerpc/main.broadcast&#45;&gt;geerpc/xclient.NewXClient</title>
<path fill="none" stroke="#8b4513" d="M91.1737,-405.465C99.8441,-410.5743 109.4487,-416.7921 117.5232,-423.3932 150.3926,-450.2646 146.6567,-470.6762 182.5232,-493.3932 195.1112,-501.3661 210.0678,-507.3066 224.205,-511.6621"/>
<polygon fill="#8b4513" stroke="#8b4513" points="223.2442,-515.0276 233.8221,-514.4298 225.1801,-508.3006 223.2442,-515.0276"/>
</g>
<!-- geerpc/main.broadcast$1 -->
<g id="node23" class="node">
<title>geerpc/main.broadcast$1</title>
<ellipse fill="#ffe4b5" stroke="#000000" stroke-dasharray="1,5" cx="66.7616" cy="-331.3932" rx="42.5246" ry="18"/>
<text text-anchor="middle" x="66.7616" y="-327.1932" font-family="Verdana" font-size="14.00" fill="#000000">broadcast$1</text>
</g>
<!-- geerpc/main.broadcast$1&#45;&gt;(*geerpc/xclient.XClient).Close -->
<g id="edge24" class="edge">
<title>geerpc/main.broadcast$1&#45;&gt;(*geerpc/xclient.XClient).Close</title>
<path fill="none" stroke="#8b4513" d="M109.6688,-332.2079C122.0542,-333.7725 135.2571,-336.7942 146.5232,-342.3932 166.7863,-352.4634 162.7822,-367.3347 182.5232,-378.3932 199.0569,-387.6549 219.3912,-393.04 236.6926,-396.1601"/>
<polygon fill="#8b4513" stroke="#8b4513" points="236.5824,-399.6874 247.0121,-397.8245 237.6971,-392.7768 236.5824,-399.6874"/>
</g>
</g>
</svg>
