<?xml version="1.0" encoding="UTF-8" standalone="no"?>
<!DOCTYPE svg PUBLIC "-//W3C//DTD SVG 1.1//EN"
 "http://www.w3.org/Graphics/SVG/1.1/DTD/svg11.dtd">
<!-- Generated by graphviz version 2.40.1 (20161225.0304)
 -->
<!-- Title: gocallvis Pages: 1 -->
<svg width="839pt" height="728pt"
 viewBox="0.00 0.00 838.87 727.80" xmlns="http://www.w3.org/2000/svg" xmlns:xlink="http://www.w3.org/1999/xlink">
<g id="graph0" class="graph" transform="scale(1 1) rotate(0) translate(0 727.8)">
<title>gocallvis</title>
<polygon fill="#d3d3d3" stroke="transparent" points="0,0 0,-727.8 838.8683,-727.8 838.8683,0 0,0"/>
<text text-anchor="middle" x="46.507" y="-8.2" font-family="Arial" font-size="14.00" fill="#000000">geerpc/main</text>
<g id="clust1" class="cluster">
<title>cluster_focus</title>
<polygon fill="#e6ecfa" stroke="#000000" stroke-width=".5" points="8,-32.8 8,-719.8 830.8683,-719.8 830.8683,-32.8 8,-32.8"/>
<text text-anchor="middle" x="419.4342" y="-699.6" font-family="Arial" font-size="18.00" fill="#000000">main</text>
</g>
<g id="clust5" class="cluster">
<title>cluster_geerpc/xclient</title>
<g id="a_clust5"><a xlink:href="/?f=geerpc/xclient" xlink:title="package: geerpc/xclient">
<polygon fill="#ffffe0" stroke="#000000" stroke-width=".8" points="623.7761,-341.8 623.7761,-681.8 822.8683,-681.8 822.8683,-341.8 623.7761,-341.8"/>
<text text-anchor="middle" x="723.3222" y="-663.4" font-family="Tahoma bold" font-size="16.00" fill="#000000">xclient</text>
</a>
</g>
</g>
<g id="clust6" class="cluster">
<title>cluster_*geerpc/xclient.XClient</title>
<g id="a_clust6"><a xlink:href="/?f=geerpc/xclient" xlink:title="type: *geerpc/xclient.XClient">
<path fill="#eed8ae" stroke="#000000" stroke-width=".5" d="M691.1543,-393.8C691.1543,-393.8 755.4901,-393.8 755.4901,-393.8 761.4901,-393.8 767.4901,-399.8 767.4901,-405.8 767.4901,-405.8 767.4901,-581.8 767.4901,-581.8 767.4901,-587.8 761.4901,-593.8 755.4901,-593.8 755.4901,-593.8 691.1543,-593.8 691.1543,-593.8 685.1543,-593.8 679.1543,-587.8 679.1543,-581.8 679.1543,-581.8 679.1543,-405.8 679.1543,-405.8 679.1543,-399.8 685.1543,-393.8 691.1543,-393.8"/>
<text text-anchor="middle" x="723.3222" y="-402.3" font-family="Tahoma bold" font-size="15.00" fill="#222222">(*XClient)</text>
</a>
</g>
</g>
<g id="clust4" class="cluster">
<title>cluster_geerpc/registry</title>
<g id="a_clust4"><a xlink:href="/?f=geerpc/registry" xlink:title="package: geerpc/registry">
<polygon fill="#ffffe0" stroke="#000000" stroke-width=".8" points="297.9317,-274.8 297.9317,-414.8 408.2529,-414.8 408.2529,-274.8 297.9317,-274.8"/>
<text text-anchor="middle" x="353.0923" y="-396.4" font-family="Tahoma bold" font-size="16.00" fill="#000000">registry</text>
</a>
</g>
</g>
<g id="clust2" class="cluster">
<title>cluster_geerpc</title>
<g id="a_clust2"><a xlink:href="/?f=geerpc" xlink:title="package: geerpc">
<polygon fill="#ffffe0" stroke="#000000" stroke-width=".8" points="304.9758,-40.8 304.9758,-266.8 401.2088,-266.8 401.2088,-40.8 304.9758,-40.8"/>
<text text-anchor="middle" x="353.0923" y="-248.4" font-family="Tahoma bold" font-size="16.00" fill="#000000">geerpc</text>
</a>
</g>
</g>
<g id="clust3" class="cluster">
<title>cluster_*geerpc.Server</title>
<g id="a_clust3"><a xlink:href="/?f=geerpc" xlink:title="type: *geerpc.Server">
<path fill="#eed8ae" stroke="#000000" stroke-width=".5" d="M326.1956,-92.8C326.1956,-92.8 379.989,-92.8 379.989,-92.8 385.989,-92.8 391.989,-98.8 391.989,-104.8 391.989,-104.8 391.989,-219.8 391.989,-219.8 391.989,-225.8 385.989,-231.8 379.989,-231.8 379.989,-231.8 326.1956,-231.8 326.1956,-231.8 320.1956,-231.8 314.1956,-225.8 314.1956,-219.8 314.1956,-219.8 314.1956,-104.8 314.1956,-104.8 314.1956,-98.8 320.1956,-92.8 326.1956,-92.8"/>
<text text-anchor="middle" x="353.0923" y="-101.3" font-family="Tahoma bold" font-size="15.00" fill="#222222">(*Server)</text>
</a>
</g>
</g>
<!-- geerpc/main.startServer -->
<g id="node1" class="node">
<title>geerpc/main.startServer</title>
<ellipse fill="#add8e6" stroke="#000000" stroke-width=".5" cx="187.9659" cy="-205.8" rx="38.6033" ry="18"/>
<text text-anchor="middle" x="187.9659" y="-201.6" font-family="Verdana" font-size="14.00" fill="#000000">startServer</text>
</g>
<!-- geerpc.NewServer -->
<g id="node11" class="node">
<title>geerpc.NewServer</title>
<ellipse fill="#ffe4b5" stroke="#000000" stroke-width="1.5" cx="353.0923" cy="-66.8" rx="40.2334" ry="18"/>
<text text-anchor="middle" x="353.0923" y="-62.6" font-family="Verdana" font-size="14.00" fill="#000000">NewServer</text>
</g>
<!-- geerpc/main.startServer&#45;&gt;geerpc.NewServer -->
<g id="edge1" class="edge">
<title>geerpc/main.startServer&#45;&gt;geerpc.NewServer</title>
<path fill="none" stroke="#8b4513" d="M200.3217,-188.4559C218.9428,-163.4145 256.4607,-117.0467 297.9317,-88.8 301.9287,-86.0776 306.3128,-83.6142 310.8081,-81.4064"/>
<polygon fill="#8b4513" stroke="#8b4513" points="312.4143,-84.5218 320.1027,-77.2322 309.5465,-78.1362 312.4143,-84.5218"/>
</g>
<!-- (*geerpc.Server).Register -->
<g id="node12" class="node">
<title>(*geerpc.Server).Register</title>
<ellipse fill="#ffe4b5" stroke="#000000" stroke-width="1.5" cx="353.0923" cy="-144.8" rx="30.7938" ry="18"/>
<text text-anchor="middle" x="353.0923" y="-140.6" font-family="Verdana" font-size="14.00" fill="#000000">Register</text>
</g>
<!-- geerpc/main.startServer&#45;&gt;(*geerpc.Server).Register -->
<g id="edge2" class="edge">
<title>geerpc/main.startServer&#45;&gt;(*geerpc.Server).Register</title>
<path fill="none" stroke="#8b4513" d="M218.6379,-194.4693C246.6256,-184.1303 287.992,-168.849 317.441,-157.9701"/>
<polygon fill="#8b4513" stroke="#8b4513" points="318.7671,-161.2115 326.9347,-154.463 316.3414,-154.6452 318.7671,-161.2115"/>
</g>
<!-- (*geerpc.Server).Accept -->
<g id="node13" class="node">
<title>(*geerpc.Server).Accept</title>
<ellipse fill="#ffe4b5" stroke="#000000" stroke-width="1.5" cx="353.0923" cy="-205.8" rx="27" ry="18"/>
<text text-anchor="middle" x="353.0923" y="-201.6" font-family="Verdana" font-size="14.00" fill="#000000">Accept</text>
</g>
<!-- geerpc/main.startServer&#45;&gt;(*geerpc.Server).Accept -->
<g id="edge4" class="edge">
<title>geerpc/main.startServer&#45;&gt;(*geerpc.Server).Accept</title>
<path fill="none" stroke="#8b4513" d="M227.0985,-205.8C253.9567,-205.8 289.3869,-205.8 315.8337,-205.8"/>
<polygon fill="#8b4513" stroke="#8b4513" points="315.8497,-209.3001 325.8496,-205.8 315.8496,-202.3001 315.8497,-209.3001"/>
</g>
<!-- geerpc/registry.Heartbeat -->
<g id="node14" class="node">
<title>geerpc/registry.Heartbeat</title>
<ellipse fill="#ffe4b5" stroke="#000000" stroke-width="1.5" cx="353.0923" cy="-300.8" rx="35.0627" ry="18"/>
<text text-anchor="middle" x="353.0923" y="-296.6" font-family="Verdana" font-size="14.00" fill="#000000">Heartbeat</text>
</g>
<!-- geerpc/main.startServer&#45;&gt;geerpc/registry.Heartbeat -->
<g id="edge3" class="edge">
<title>geerpc/main.startServer&#45;&gt;geerpc/registry.Heartbeat</title>
<path fill="none" stroke="#8b4513" d="M212.3308,-219.8176C240.9908,-236.3061 288.6869,-263.7465 320.5059,-282.0525"/>
<polygon fill="#8b4513" stroke="#8b4513" points="319.0177,-285.2342 329.431,-287.1872 322.5085,-279.1667 319.0177,-285.2342"/>
</g>
<!-- geerpc/main.startRegistry -->
<g id="node2" class="node">
<title>geerpc/main.startRegistry</title>
<ellipse fill="#add8e6" stroke="#000000" stroke-width=".5" cx="187.9659" cy="-382.8" rx="44.9317" ry="18"/>
<text text-anchor="middle" x="187.9659" y="-378.6" font-family="Verdana" font-size="14.00" fill="#000000">startRegistry</text>
</g>
<!-- geerpc/registry.HandleHTTP -->
<g id="node15" class="node">
<title>geerpc/registry.HandleHTTP</title>
<ellipse fill="#ffe4b5" stroke="#000000" stroke-width="1.5" cx="353.0923" cy="-361.8" rx="47.3217" ry="18"/>
<text text-anchor="middle" x="353.0923" y="-357.6" font-family="Verdana" font-size="14.00" fill="#000000">HandleHTTP</text>
</g>
<!-- geerpc/main.startRegistry&#45;&gt;geerpc/registry.HandleHTTP -->
<g id="edge5" class="edge">
<title>geerpc/main.startRegistry&#45;&gt;geerpc/registry.HandleHTTP</title>
<path fill="none" stroke="#8b4513" d="M230.9198,-377.3373C251.4609,-374.725 276.2887,-371.5675 298.1832,-368.7831"/>
<polygon fill="#8b4513" stroke="#8b4513" points="298.8576,-372.2256 308.3361,-367.4919 297.9744,-365.2815 298.8576,-372.2256"/>
</g>
<!-- geerpc/main.main -->
<g id="node3" class="node">
<title>geerpc/main.main</title>
<ellipse fill="#add8e6" stroke="#000000" stroke-width=".5" cx="43" cy="-416.8" rx="27" ry="18"/>
<text text-anchor="middle" x="43" y="-412.6" font-family="Verdana" font-size="14.00" fill="#000000">main</text>
</g>
<!-- geerpc/main.main&#45;&gt;geerpc/main.startServer -->
<g id="edge7" class="edge">
<title>geerpc/main.main&#45;&gt;geerpc/main.startServer</title>
<path fill="none" stroke="#000000" d="M54.3752,-400.2432C77.6491,-366.3677 131.1827,-288.4487 162.9656,-242.1882"/>
<polygon fill="#000000" stroke="#000000" points="173.2593,-233.3864 176.0372,-223.1623 167.4897,-229.4225 173.2593,-233.3864"/>
<polyline fill="none" stroke="#000000" points="170.3745,-231.4045 167.5431,-235.5256 "/>
<ellipse fill="none" stroke="#000000" cx="165.278" cy="-238.8224" rx="4" ry="4"/>
</g>
<!-- geerpc/main.main&#45;&gt;geerpc/main.startRegistry -->
<g id="edge6" class="edge">
<title>geerpc/main.main&#45;&gt;geerpc/main.startRegistry</title>
<path fill="none" stroke="#000000" d="M68.5833,-410.7997C84.6779,-407.0249 106.1791,-401.9821 126.4979,-397.2166"/>
<polygon fill="#000000" stroke="#000000" points="140.0604,-397.6307 148.997,-391.9397 138.462,-390.8156 140.0604,-397.6307"/>
<polyline fill="none" stroke="#000000" points="139.2612,-394.2231 134.3933,-395.3648 "/>
<ellipse fill="none" stroke="#000000" cx="130.499" cy="-396.2782" rx="4" ry="4"/>
</g>
<!-- geerpc/main.call -->
<g id="node4" class="node">
<title>geerpc/main.call</title>
<ellipse fill="#add8e6" stroke="#000000" stroke-width=".5" cx="187.9659" cy="-450.8" rx="27" ry="18"/>
<text text-anchor="middle" x="187.9659" y="-446.6" font-family="Verdana" font-size="14.00" fill="#000000">call</text>
</g>
<!-- geerpc/main.main&#45;&gt;geerpc/main.call -->
<g id="edge16" class="edge">
<title>geerpc/main.main&#45;&gt;geerpc/main.call</title>
<path fill="none" stroke="#000000" d="M68.5833,-422.8003C91.8327,-428.2531 126.3641,-436.352 152.3159,-442.4387"/>
<polygon fill="#000000" stroke="#000000" points="151.6157,-445.8694 162.1507,-444.7454 153.2141,-439.0543 151.6157,-445.8694"/>
</g>
<!-- geerpc/main.broadcast -->
<g id="node8" class="node">
<title>geerpc/main.broadcast</title>
<ellipse fill="#add8e6" stroke="#000000" stroke-width=".5" cx="187.9659" cy="-565.8" rx="34.6946" ry="18"/>
<text text-anchor="middle" x="187.9659" y="-561.6" font-family="Verdana" font-size="14.00" fill="#000000">broadcast</text>
</g>
<!-- geerpc/main.main&#45;&gt;geerpc/main.broadcast -->
<g id="edge23" class="edge">
<title>geerpc/main.main&#45;&gt;geerpc/main.broadcast</title>
<path fill="none" stroke="#000000" d="M57.6979,-431.9069C82.9139,-457.8246 134.6071,-510.9564 164.7415,-541.9293"/>
<polygon fill="#000000" stroke="#000000" points="162.427,-544.5695 171.909,-549.2963 167.4442,-539.6881 162.427,-544.5695"/>
</g>
<!-- geerpc/main.call$1 -->
<g id="node5" class="node">
<title>geerpc/main.call$1</title>
<ellipse fill="#add8e6" stroke="#000000" stroke-dasharray="1,5" cx="516.0145" cy="-433.8" rx="27" ry="18"/>
<text text-anchor="middle" x="516.0145" y="-429.6" font-family="Verdana" font-size="14.00" fill="#000000">call$1</text>
</g>
<!-- geerpc/main.call&#45;&gt;geerpc/main.call$1 -->
<g id="edge11" class="edge">
<title>geerpc/main.call&#45;&gt;geerpc/main.call$1</title>
<path fill="none" stroke="#000000" d="M215.0906,-449.3944C268.9666,-446.6024 390.3792,-440.3106 461.4234,-436.629"/>
<polygon fill="#000000" stroke="#000000" points="479.0527,-439.2202 488.8581,-435.2073 478.6904,-432.2295 479.0527,-439.2202"/>
<polyline fill="none" stroke="#000000" points="478.8715,-435.7248 473.8782,-435.9836 "/>
<polygon fill="none" stroke="#000000" points="461.8943,-436.6047 467.6793,-432.2995 473.8782,-435.9836 468.0933,-440.2888 461.8943,-436.6047"/>
</g>
<!-- geerpc/main.call$2 -->
<g id="node7" class="node">
<title>geerpc/main.call$2</title>
<ellipse fill="#add8e6" stroke="#000000" stroke-dasharray="1,5" cx="353.0923" cy="-521.8" rx="27" ry="18"/>
<text text-anchor="middle" x="353.0923" y="-517.6" font-family="Verdana" font-size="14.00" fill="#000000">call$2</text>
</g>
<!-- geerpc/main.call&#45;&gt;geerpc/main.call$2 -->
<g id="edge15" class="edge">
<title>geerpc/main.call&#45;&gt;geerpc/main.call$2</title>
<path fill="none" stroke="#000000" d="M210.926,-460.6722C236.1889,-471.5346 277.3936,-489.2516 308.9556,-502.8224"/>
<polygon fill="#000000" stroke="#000000" points="319.7579,-511.2769 330.3272,-512.0116 322.5229,-504.8461 319.7579,-511.2769"/>
<polyline fill="none" stroke="#000000" points="321.1404,-508.0615 316.547,-506.0865 "/>
<ellipse fill="none" stroke="#000000" cx="312.8723" cy="-504.5064" rx="4" ry="4"/>
</g>
<!-- geerpc/xclient.NewGeeRegistryDiscovery -->
<g id="node16" class="node">
<title>geerpc/xclient.NewGeeRegistryDiscovery</title>
<ellipse fill="#ffe4b5" stroke="#000000" stroke-width="1.5" cx="723.3222" cy="-628.8" rx="91.5922" ry="18"/>
<text text-anchor="middle" x="723.3222" y="-624.6" font-family="Verdana" font-size="14.00" fill="#000000">NewGeeRegistryDiscovery</text>
</g>
<!-- geerpc/main.call&#45;&gt;geerpc/xclient.NewGeeRegistryDiscovery -->
<g id="edge8" class="edge">
<title>geerpc/main.call&#45;&gt;geerpc/xclient.NewGeeRegistryDiscovery</title>
<path fill="none" stroke="#8b4513" d="M201.3077,-466.7855C220.5612,-488.9331 258.2083,-528.9165 297.9317,-552.8 397.0874,-612.4167 531.1538,-627.7861 622.0851,-630.5835"/>
<polygon fill="#8b4513" stroke="#8b4513" points="622.0371,-634.0833 632.1254,-630.8468 622.2207,-627.0857 622.0371,-634.0833"/>
</g>
<!-- geerpc/xclient.NewXClient -->
<g id="node17" class="node">
<title>geerpc/xclient.NewXClient</title>
<ellipse fill="#ffe4b5" stroke="#000000" stroke-width="1.5" cx="723.3222" cy="-367.8" rx="44.5484" ry="18"/>
<text text-anchor="middle" x="723.3222" y="-363.6" font-family="Verdana" font-size="14.00" fill="#000000">NewXClient</text>
</g>
<!-- geerpc/main.call&#45;&gt;geerpc/xclient.NewXClient -->
<g id="edge9" class="edge">
<title>geerpc/main.call&#45;&gt;geerpc/xclient.NewXClient</title>
<path fill="none" stroke="#8b4513" d="M214.1428,-446.2428C236.3969,-442.4339 269.215,-436.971 297.9317,-432.8 346.8433,-425.6958 359.596,-427.4789 408.2529,-418.8 437.4404,-413.5938 444.1101,-409.2504 473.2529,-403.8 540.8156,-391.1641 619.365,-380.5086 670.135,-374.1437"/>
<polygon fill="#8b4513" stroke="#8b4513" points="670.7281,-377.5969 680.2199,-372.89 669.8645,-370.6504 670.7281,-377.5969"/>
</g>
<!-- (*geerpc/xclient.XClient).Close -->
<g id="node18" class="node">
<title>(*geerpc/xclient.XClient).Close</title>
<ellipse fill="#ffe4b5" stroke="#000000" stroke-width="1.5" cx="723.3222" cy="-445.8" rx="27" ry="18"/>
<text text-anchor="middle" x="723.3222" y="-441.6" font-family="Verdana" font-size="14.00" fill="#000000">Close</text>
</g>
<!-- geerpc/main.call$1&#45;&gt;(*geerpc/xclient.XClient).Close -->
<g id="edge10" class="edge">
<title>geerpc/main.call$1&#45;&gt;(*geerpc/xclient.XClient).Close</title>
<path fill="none" stroke="#8b4513" d="M543.1164,-435.3688C579.6652,-437.4844 644.9042,-441.2608 686.0509,-443.6426"/>
<polygon fill="#8b4513" stroke="#8b4513" points="686.0281,-447.147 696.2137,-444.2308 686.4327,-440.1587 686.0281,-447.147"/>
</g>
<!-- geerpc/main.foo -->
<g id="node6" class="node">
<title>geerpc/main.foo</title>
<ellipse fill="#add8e6" stroke="#000000" stroke-width=".5" cx="516.0145" cy="-582.8" rx="27" ry="18"/>
<text text-anchor="middle" x="516.0145" y="-578.6" font-family="Verdana" font-size="14.00" fill="#000000">foo</text>
</g>
<!-- (*geerpc/xclient.XClient).Call -->
<g id="node19" class="node">
<title>(*geerpc/xclient.XClient).Call</title>
<ellipse fill="#ffe4b5" stroke="#000000" stroke-width="1.5" cx="723.3222" cy="-567.8" rx="27" ry="18"/>
<text text-anchor="middle" x="723.3222" y="-563.6" font-family="Verdana" font-size="14.00" fill="#000000">Call</text>
</g>
<!-- geerpc/main.foo&#45;&gt;(*geerpc/xclient.XClient).Call -->
<g id="edge12" class="edge">
<title>geerpc/main.foo&#45;&gt;(*geerpc/xclient.XClient).Call</title>
<path fill="none" stroke="#8b4513" d="M543.1164,-580.839C579.6652,-578.1945 644.9042,-573.474 686.0509,-570.4968"/>
<polygon fill="#8b4513" stroke="#8b4513" points="686.4924,-573.9741 696.2137,-569.7615 685.9872,-566.9924 686.4924,-573.9741"/>
</g>
<!-- (*geerpc/xclient.XClient).Broadcast -->
<g id="node20" class="node">
<title>(*geerpc/xclient.XClient).Broadcast</title>
<ellipse fill="#ffe4b5" stroke="#000000" stroke-width="1.5" cx="723.3222" cy="-506.8" rx="36.3366" ry="18"/>
<text text-anchor="middle" x="723.3222" y="-502.6" font-family="Verdana" font-size="14.00" fill="#000000">Broadcast</text>
</g>
<!-- geerpc/main.foo&#45;&gt;(*geerpc/xclient.XClient).Broadcast -->
<g id="edge13" class="edge">
<title>geerpc/main.foo&#45;&gt;(*geerpc/xclient.XClient).Broadcast</title>
<path fill="none" stroke="#8b4513" d="M538.4763,-572.6956C560.1084,-563.1377 593.8615,-548.6768 623.7761,-537.8 642.7225,-530.9112 664.025,-524.1489 682.0474,-518.7069"/>
<polygon fill="#8b4513" stroke="#8b4513" points="683.1071,-522.0433 691.6866,-515.827 681.1032,-515.3362 683.1071,-522.0433"/>
</g>
<!-- geerpc/main.call$2&#45;&gt;geerpc/main.foo -->
<g id="edge14" class="edge">
<title>geerpc/main.call$2&#45;&gt;geerpc/main.foo</title>
<path fill="none" stroke="#000000" d="M376.7826,-530.6699C404.655,-541.1057 451.118,-558.502 482.6317,-570.3011"/>
<polygon fill="#000000" stroke="#000000" points="481.7033,-573.6907 492.2956,-573.9194 484.1578,-567.1351 481.7033,-573.6907"/>
</g>
<!-- geerpc/main.broadcast$1 -->
<g id="node9" class="node">
<title>geerpc/main.broadcast$1</title>
<ellipse fill="#add8e6" stroke="#000000" stroke-dasharray="1,5" cx="516.0145" cy="-521.8" rx="42.5246" ry="18"/>
<text text-anchor="middle" x="516.0145" y="-517.6" font-family="Verdana" font-size="14.00" fill="#000000">broadcast$1</text>
</g>
<!-- geerpc/main.broadcast&#45;&gt;geerpc/main.broadcast$1 -->
<g id="edge20" class="edge">
<title>geerpc/main.broadcast&#45;&gt;geerpc/main.broadcast$1</title>
<path fill="none" stroke="#000000" d="M222.9561,-566.1092C266.6366,-565.9523 343.4917,-563.8852 408.2529,-552.8 424.3028,-550.0527 441.3689,-545.7913 457.0735,-541.2984"/>
<polygon fill="#000000" stroke="#000000" points="474.4272,-539.6426 482.9634,-533.367 472.3768,-532.9497 474.4272,-539.6426"/>
<polyline fill="none" stroke="#000000" points="473.402,-536.2962 468.6213,-537.7607 "/>
<polygon fill="none" stroke="#000000" points="457.1476,-541.2758 461.7128,-535.6937 468.6213,-537.7607 464.0561,-543.3428 457.1476,-541.2758"/>
</g>
<!-- geerpc/main.broadcast$2 -->
<g id="node10" class="node">
<title>geerpc/main.broadcast$2</title>
<ellipse fill="#add8e6" stroke="#000000" stroke-dasharray="1,5" cx="353.0923" cy="-636.8" rx="42.5246" ry="18"/>
<text text-anchor="middle" x="353.0923" y="-632.6" font-family="Verdana" font-size="14.00" fill="#000000">broadcast$2</text>
</g>
<!-- geerpc/main.broadcast&#45;&gt;geerpc/main.broadcast$2 -->
<g id="edge22" class="edge">
<title>geerpc/main.broadcast&#45;&gt;geerpc/main.broadcast$2</title>
<path fill="none" stroke="#000000" d="M214.8638,-577.3654C238.2997,-587.4422 272.9364,-602.3351 301.6743,-614.6916"/>
<polygon fill="#000000" stroke="#000000" points="312.5608,-623.1823 323.1301,-623.917 315.3258,-616.7516 312.5608,-623.1823"/>
<polyline fill="none" stroke="#000000" points="313.9433,-619.9669 309.3499,-617.9919 "/>
<ellipse fill="none" stroke="#000000" cx="305.6752" cy="-616.4118" rx="4" ry="4"/>
</g>
<!-- geerpc/main.broadcast&#45;&gt;geerpc/xclient.NewGeeRegistryDiscovery -->
<g id="edge17" class="edge">
<title>geerpc/main.broadcast&#45;&gt;geerpc/xclient.NewGeeRegistryDiscovery</title>
<path fill="none" stroke="#8b4513" d="M201.2985,-582.7525C220.2595,-605.6611 257.2571,-646.1233 297.9317,-667.8 320.1597,-679.6459 327.9048,-680.8 353.0923,-680.8 353.0923,-680.8 353.0923,-680.8 516.0145,-680.8 571.1494,-680.8 632.121,-663.2818 673.5795,-648.5812"/>
<polygon fill="#8b4513" stroke="#8b4513" points="674.9511,-651.807 683.1613,-645.1105 672.5671,-645.2255 674.9511,-651.807"/>
</g>
<!-- geerpc/main.broadcast&#45;&gt;geerpc/xclient.NewXClient -->
<g id="edge18" class="edge">
<title>geerpc/main.broadcast&#45;&gt;geerpc/xclient.NewXClient</title>
<path fill="none" stroke="#8b4513" d="M204.6998,-549.6594C232.8802,-524.2546 292.6709,-477.8 353.0923,-477.8 353.0923,-477.8 353.0923,-477.8 516.0145,-477.8 535.8785,-477.8 542.1164,-475.6181 558.7761,-464.8 595.7707,-440.7775 585.8773,-412.3689 623.7761,-389.8 637.4982,-381.6285 653.9145,-376.4842 669.4209,-373.2484"/>
<polygon fill="#8b4513" stroke="#8b4513" points="670.2503,-376.6542 679.4419,-371.3849 668.9705,-369.7722 670.2503,-376.6542"/>
</g>
<!-- geerpc/main.broadcast$1&#45;&gt;(*geerpc/xclient.XClient).Close -->
<g id="edge19" class="edge">
<title>geerpc/main.broadcast$1&#45;&gt;(*geerpc/xclient.XClient).Close</title>
<path fill="none" stroke="#8b4513" d="M545.4507,-508.6297C566.9482,-499.2275 596.9101,-486.5684 623.7761,-476.8 644.9732,-469.0928 669.1194,-461.544 688.3219,-455.8254"/>
<polygon fill="#8b4513" stroke="#8b4513" points="689.5476,-459.1131 698.1504,-452.9291 687.5689,-452.3986 689.5476,-459.1131"/>
</g>
<!-- geerpc/main.broadcast$2&#45;&gt;geerpc/main.foo -->
<g id="edge21" class="edge">
<title>geerpc/main.broadcast$2&#45;&gt;geerpc/main.foo</title>
<path fill="none" stroke="#000000" d="M386.8499,-625.6112C414.7415,-616.3666 454.153,-603.3038 482.0903,-594.0441"/>
<polygon fill="#000000" stroke="#000000" points="483.4303,-597.2872 491.8213,-590.8188 481.2279,-590.6427 483.4303,-597.2872"/>
</g>
</g>
</svg>
