<?xml version="1.0" encoding="UTF-8" standalone="no"?>
<!DOCTYPE svg PUBLIC "-//W3C//DTD SVG 1.1//EN"
 "http://www.w3.org/Graphics/SVG/1.1/DTD/svg11.dtd">
<!-- Generated by graphviz version 2.40.1 (20161225.0304)
 -->
<!-- Title: gocallvis Pages: 1 -->
<svg width="639pt" height="306pt"
 viewBox="0.00 0.00 639.00 305.80" xmlns="http://www.w3.org/2000/svg" xmlns:xlink="http://www.w3.org/1999/xlink">
<g id="graph0" class="graph" transform="scale(1 1) rotate(0) translate(0 305.8)">
<title>gocallvis</title>
<polygon fill="#d3d3d3" stroke="transparent" points="0,0 0,-305.8 638.9978,-305.8 638.9978,0 0,0"/>
<text text-anchor="middle" x="46.507" y="-8.2" font-family="Arial" font-size="14.00" fill="#000000">geerpc/main</text>
<g id="clust1" class="cluster">
<title>cluster_focus</title>
<polygon fill="#e6ecfa" stroke="#000000" stroke-width=".5" points="8,-32.8 8,-297.8 630.9978,-297.8 630.9978,-32.8 8,-32.8"/>
<text text-anchor="middle" x="319.4989" y="-277.6" font-family="Arial" font-size="18.00" fill="#000000">registry</text>
</g>
<g id="clust3" class="cluster">
<title>cluster_geerpc/main</title>
<g id="a_clust3"><a xlink:href="/?f=geerpc/main" xlink:title="package: geerpc/main">
<polygon fill="#ffffe0" stroke="#000000" stroke-width=".8" points="16,-108.8 16,-248.8 121.9317,-248.8 121.9317,-108.8 16,-108.8"/>
<text text-anchor="middle" x="68.9659" y="-230.4" font-family="Tahoma bold" font-size="16.00" fill="#000000">main</text>
</a>
</g>
</g>
<g id="clust2" class="cluster">
<title>cluster_*geerpc/registry.GeeRegistry</title>
<g id="a_clust2"><a xlink:title="type: *geerpc/registry.GeeRegistry">
<path fill="#b0c4de" stroke="#000000" stroke-width=".5" d="M358.2529,-40.8C358.2529,-40.8 610.9978,-40.8 610.9978,-40.8 616.9978,-40.8 622.9978,-46.8 622.9978,-52.8 622.9978,-52.8 622.9978,-167.8 622.9978,-167.8 622.9978,-173.8 616.9978,-179.8 610.9978,-179.8 610.9978,-179.8 358.2529,-179.8 358.2529,-179.8 352.2529,-179.8 346.2529,-173.8 346.2529,-167.8 346.2529,-167.8 346.2529,-52.8 346.2529,-52.8 346.2529,-46.8 352.2529,-40.8 358.2529,-40.8"/>
<text text-anchor="middle" x="484.6253" y="-49.3" font-family="Arial" font-size="15.00" fill="#222222">(*GeeRegistry)</text>
</a>
</g>
</g>
<!-- geerpc/registry.init -->
<g id="node1" class="node">
<title>geerpc/registry.init</title>
<ellipse fill="#add8e6" stroke="#000000" stroke-width=".5" cx="68.9659" cy="-65.8" rx="27" ry="18"/>
<text text-anchor="middle" x="68.9659" y="-61.6" font-family="Verdana" font-size="14.00" fill="#000000">init</text>
</g>
<!-- geerpc/registry.New -->
<g id="node2" class="node">
<title>geerpc/registry.New</title>
<ellipse fill="#add8e6" stroke="#000000" stroke-width="1.5" cx="234.0923" cy="-65.8" rx="27" ry="18"/>
<text text-anchor="middle" x="234.0923" y="-61.6" font-family="Verdana" font-size="14.00" fill="#000000">New</text>
</g>
<!-- geerpc/registry.init&#45;&gt;geerpc/registry.New -->
<g id="edge3" class="edge">
<title>geerpc/registry.init&#45;&gt;geerpc/registry.New</title>
<path fill="none" stroke="#000000" d="M96.2331,-65.8C123.6835,-65.8 166.2266,-65.8 196.7916,-65.8"/>
<polygon fill="#000000" stroke="#000000" points="197.059,-69.3001 207.059,-65.8 197.0589,-62.3001 197.059,-69.3001"/>
</g>
<!-- geerpc/registry.HandleHTTP -->
<g id="node3" class="node">
<title>geerpc/registry.HandleHTTP</title>
<ellipse fill="#add8e6" stroke="#000000" stroke-width="1.5" cx="234.0923" cy="-132.8" rx="47.3217" ry="18"/>
<text text-anchor="middle" x="234.0923" y="-128.6" font-family="Verdana" font-size="14.00" fill="#000000">HandleHTTP</text>
</g>
<!-- (*geerpc/registry.GeeRegistry).HandleHTTP -->
<g id="node10" class="node">
<title>(*geerpc/registry.GeeRegistry).HandleHTTP</title>
<ellipse fill="#add8e6" stroke="#000000" stroke-width="1.5" cx="401.4135" cy="-92.8" rx="47.3217" ry="18"/>
<text text-anchor="middle" x="401.4135" y="-88.6" font-family="Verdana" font-size="14.00" fill="#000000">HandleHTTP</text>
</g>
<!-- geerpc/registry.HandleHTTP&#45;&gt;(*geerpc/registry.GeeRegistry).HandleHTTP -->
<g id="edge4" class="edge">
<title>geerpc/registry.HandleHTTP&#45;&gt;(*geerpc/registry.GeeRegistry).HandleHTTP</title>
<path fill="none" stroke="#000000" d="M274.1699,-123.219C297.3676,-117.6733 326.7679,-110.6449 351.4626,-104.7413"/>
<polygon fill="#000000" stroke="#000000" points="352.4612,-108.1013 361.3733,-102.3721 350.8335,-101.2931 352.4612,-108.1013"/>
</g>
<!-- geerpc/registry.Heartbeat -->
<g id="node4" class="node">
<title>geerpc/registry.Heartbeat</title>
<ellipse fill="#add8e6" stroke="#000000" stroke-width="1.5" cx="234.0923" cy="-197.8" rx="35.0627" ry="18"/>
<text text-anchor="middle" x="234.0923" y="-193.6" font-family="Verdana" font-size="14.00" fill="#000000">Heartbeat</text>
</g>
<!-- geerpc/registry.sendHeartbeat -->
<g id="node5" class="node">
<title>geerpc/registry.sendHeartbeat</title>
<ellipse fill="#add8e6" stroke="#000000" stroke-width=".5" cx="571.3608" cy="-219.8" rx="49.5743" ry="18"/>
<text text-anchor="middle" x="571.3608" y="-215.6" font-family="Verdana" font-size="14.00" fill="#000000">sendHeartbeat</text>
</g>
<!-- geerpc/registry.Heartbeat&#45;&gt;geerpc/registry.sendHeartbeat -->
<g id="edge6" class="edge">
<title>geerpc/registry.Heartbeat&#45;&gt;geerpc/registry.sendHeartbeat</title>
<path fill="none" stroke="#000000" d="M269.2315,-200.0921C326.8007,-203.8474 441.8263,-211.3505 512.1563,-215.9381"/>
<polygon fill="#000000" stroke="#000000" points="511.9898,-219.4346 522.1964,-216.593 512.4455,-212.4494 511.9898,-219.4346"/>
</g>
<!-- geerpc/registry.Heartbeat$1 -->
<g id="node6" class="node">
<title>geerpc/registry.Heartbeat$1</title>
<ellipse fill="#add8e6" stroke="#000000" stroke-dasharray="1,5" cx="401.4135" cy="-241.8" rx="43.3916" ry="18"/>
<text text-anchor="middle" x="401.4135" y="-237.6" font-family="Verdana" font-size="14.00" fill="#000000">Heartbeat$1</text>
</g>
<!-- geerpc/registry.Heartbeat&#45;&gt;geerpc/registry.Heartbeat$1 -->
<g id="edge8" class="edge">
<title>geerpc/registry.Heartbeat&#45;&gt;geerpc/registry.Heartbeat$1</title>
<path fill="none" stroke="#000000" d="M265.5641,-206.0761C287.1627,-211.7558 316.4882,-219.4674 342.3651,-226.2722"/>
<polygon fill="#000000" stroke="#000000" points="354.2782,-233.0239 364.8396,-232.1823 356.0585,-226.2541 354.2782,-233.0239"/>
<polyline fill="none" stroke="#000000" points="355.1684,-229.639 350.3328,-228.3674 "/>
<ellipse fill="none" stroke="#000000" cx="346.4643" cy="-227.3501" rx="4" ry="4"/>
</g>
<!-- geerpc/registry.Heartbeat$1&#45;&gt;geerpc/registry.sendHeartbeat -->
<g id="edge7" class="edge">
<title>geerpc/registry.Heartbeat$1&#45;&gt;geerpc/registry.sendHeartbeat</title>
<path fill="none" stroke="#000000" d="M442.9873,-236.4182C464.3872,-233.6479 490.8071,-230.2278 514.1051,-227.2119"/>
<polygon fill="#000000" stroke="#000000" points="514.7488,-230.6578 524.2167,-225.9029 513.8501,-223.7157 514.7488,-230.6578"/>
</g>
<!-- (*geerpc/registry.GeeRegistry).ServeHTTP -->
<g id="node7" class="node">
<title>(*geerpc/registry.GeeRegistry).ServeHTTP</title>
<ellipse fill="#add8e6" stroke="#000000" stroke-width="1.5" cx="401.4135" cy="-153.8" rx="42.1502" ry="18"/>
<text text-anchor="middle" x="401.4135" y="-149.6" font-family="Verdana" font-size="14.00" fill="#000000">ServeHTTP</text>
</g>
<!-- (*geerpc/registry.GeeRegistry).aliveServers -->
<g id="node8" class="node">
<title>(*geerpc/registry.GeeRegistry).aliveServers</title>
<ellipse fill="#add8e6" stroke="#000000" stroke-width=".5" cx="571.3608" cy="-92.8" rx="43.7744" ry="18"/>
<text text-anchor="middle" x="571.3608" y="-88.6" font-family="Verdana" font-size="14.00" fill="#000000">aliveServers</text>
</g>
<!-- (*geerpc/registry.GeeRegistry).ServeHTTP&#45;&gt;(*geerpc/registry.GeeRegistry).aliveServers -->
<g id="edge1" class="edge">
<title>(*geerpc/registry.GeeRegistry).ServeHTTP&#45;&gt;(*geerpc/registry.GeeRegistry).aliveServers</title>
<path fill="none" stroke="#000000" d="M433.7793,-142.1828C460.6885,-132.5241 499.2022,-118.7002 528.6403,-108.1339"/>
<polygon fill="#000000" stroke="#000000" points="530.0162,-111.3587 538.2458,-104.6861 527.6513,-104.7703 530.0162,-111.3587"/>
</g>
<!-- (*geerpc/registry.GeeRegistry).putServer -->
<g id="node9" class="node">
<title>(*geerpc/registry.GeeRegistry).putServer</title>
<ellipse fill="#add8e6" stroke="#000000" stroke-width=".5" cx="571.3608" cy="-153.8" rx="35.0816" ry="18"/>
<text text-anchor="middle" x="571.3608" y="-149.6" font-family="Verdana" font-size="14.00" fill="#000000">putServer</text>
</g>
<!-- (*geerpc/registry.GeeRegistry).ServeHTTP&#45;&gt;(*geerpc/registry.GeeRegistry).putServer -->
<g id="edge2" class="edge">
<title>(*geerpc/registry.GeeRegistry).ServeHTTP&#45;&gt;(*geerpc/registry.GeeRegistry).putServer</title>
<path fill="none" stroke="#000000" d="M443.86,-153.8C468.8323,-153.8 500.4071,-153.8 525.8873,-153.8"/>
<polygon fill="#000000" stroke="#000000" points="526.0388,-157.3001 536.0388,-153.8 526.0387,-150.3001 526.0388,-157.3001"/>
</g>
<!-- geerpc/main.startRegistry -->
<g id="node11" class="node">
<title>geerpc/main.startRegistry</title>
<ellipse fill="#ffe4b5" stroke="#000000" stroke-width=".5" cx="68.9659" cy="-134.8" rx="44.9317" ry="18"/>
<text text-anchor="middle" x="68.9659" y="-130.6" font-family="Verdana" font-size="14.00" fill="#000000">startRegistry</text>
</g>
<!-- geerpc/main.startRegistry&#45;&gt;geerpc/registry.HandleHTTP -->
<g id="edge5" class="edge">
<title>geerpc/main.startRegistry&#45;&gt;geerpc/registry.HandleHTTP</title>
<path fill="none" stroke="#8b4513" d="M114.0874,-134.2535C133.3659,-134.02 156.0999,-133.7446 176.5666,-133.4967"/>
<polygon fill="#8b4513" stroke="#8b4513" points="176.7616,-136.9947 186.7184,-133.3738 176.6767,-129.9953 176.7616,-136.9947"/>
</g>
<!-- geerpc/main.startServer -->
<g id="node12" class="node">
<title>geerpc/main.startServer</title>
<ellipse fill="#ffe4b5" stroke="#000000" stroke-width=".5" cx="68.9659" cy="-195.8" rx="38.6033" ry="18"/>
<text text-anchor="middle" x="68.9659" y="-191.6" font-family="Verdana" font-size="14.00" fill="#000000">startServer</text>
</g>
<!-- geerpc/main.startServer&#45;&gt;geerpc/registry.Heartbeat -->
<g id="edge9" class="edge">
<title>geerpc/main.startServer&#45;&gt;geerpc/registry.Heartbeat</title>
<path fill="none" stroke="#8b4513" d="M108.0985,-196.274C132.2394,-196.5664 163.3054,-196.9426 188.5488,-197.2484"/>
<polygon fill="#8b4513" stroke="#8b4513" points="188.5762,-200.7489 198.6178,-197.3703 188.661,-193.7494 188.5762,-200.7489"/>
</g>
</g>
</svg>
